v -0.383342 0.516528 -0.000000
v -0.810716 -0.391957 0.000000
v -0.487158 -1.538350 0.000000
v 0.136195 -0.898392 0.000000
v -1.389206 -0.544863 0.000000
v 2.201013 -0.648107 0.000000
v -1.741023 -1.094447 0.000000
v -0.730436 1.462792 -0.000000
v 2.492010 1.436819 -0.000000
v 2.544851 -0.073158 0.000000
v -0.007019 1.473418 -0.000000
v 1.573062 1.436229 -0.000000
v 1.510267 0.623686 0.000000
v 0.217996 0.651873 0.000000
vn 0.0000 -0.0000 -1.0000
f 3//1 7//1 5//1
f 3//1 5//1 2//1
f 4//1 3//1 2//1
f 4//1 2//1 1//1
f 11//1 1//1 8//1
f 14//1 1//1 11//1
f 4//1 1//1 14//1
f 6//1 4//1 14//1
f 6//1 14//1 13//1
f 10//1 6//1 13//1
f 9//1 10//1 13//1
f 12//1 9//1 13//1
